<?xml version="1.0" encoding="UTF-8" standalone="no" ?>
<!DOCTYPE svg PUBLIC "-//W3C//DTD SVG 1.1//EN" "http://www.w3.org/Graphics/SVG/1.1/DTD/svg11.dtd">
<svg xmlns="http://www.w3.org/2000/svg" xmlns:xlink="http://www.w3.org/1999/xlink" version="1.1" width="1080" height="1080" viewBox="0 0 1080 1080" xml:space="preserve">
<desc>Created with Fabric.js 5.2.4</desc>
<defs>
</defs>
<rect x="0" y="0" width="100%" height="100%" fill="transparent"></rect>
<g transform="matrix(1 0 0 1 540 540)" id="cf567cfe-939c-4c53-afd9-88f532a45b81"  >
<rect style="stroke: none; stroke-width: 1; stroke-dasharray: none; stroke-linecap: butt; stroke-dashoffset: 0; stroke-linejoin: miter; stroke-miterlimit: 4; fill: rgb(255,255,255); fill-rule: nonzero; opacity: 1; visibility: hidden;" vector-effect="non-scaling-stroke"  x="-540" y="-540" rx="0" ry="0" width="1080" height="1080" />
</g>
<g transform="matrix(1 0 0 1 540 540)" id="6c63b5fa-c555-4126-bd70-977e3d01266b"  >
</g>
<g transform="matrix(1 0 0 1 540 540)" id="231b2ea3-8bde-47ca-bf39-0acbfaf0c0d5"  >
<path style="stroke: rgb(0,0,0); stroke-width: 0; stroke-dasharray: none; stroke-linecap: butt; stroke-dashoffset: 0; stroke-linejoin: miter; stroke-miterlimit: 4; fill: rgb(255,255,255); fill-rule: nonzero; opacity: 1;" vector-effect="non-scaling-stroke"  transform=" translate(-480, 500)" d="M 460 -160 Q 410 -160 375 -195 Q 340 -230 340 -280 L 420 -280 Q 420 -263 431.5 -251.5 Q 443 -240 460 -240 Q 477 -240 488.5 -251.5 Q 500 -263 500 -280 Q 500 -297 488.5 -308.5 Q 477 -320 460 -320 L 80 -320 L 80 -400 L 460 -400 Q 510 -400 545 -365 Q 580 -330 580 -280 Q 580 -230 545 -195 Q 510 -160 460 -160 Z M 80 -560 L 80 -640 L 620 -640 Q 646 -640 663 -657 Q 680 -674 680 -700 Q 680 -726 663 -743 Q 646 -760 620 -760 Q 594 -760 577 -743 Q 560 -726 560 -700 L 480 -700 Q 480 -759 520.5 -799.5 Q 561 -840 620 -840 Q 679 -840 719.5 -799.5 Q 760 -759 760 -700 Q 760 -641 719.5 -600.5 Q 679 -560 620 -560 L 80 -560 Z M 740 -240 L 740 -320 Q 766 -320 783 -337 Q 800 -354 800 -380 Q 800 -406 783 -423 Q 766 -440 740 -440 L 80 -440 L 80 -520 L 740 -520 Q 799 -520 839.5 -479.5 Q 880 -439 880 -380 Q 880 -321 839.5 -280.5 Q 799 -240 740 -240 Z" stroke-linecap="round" />
</g>
</svg>